<mxfile host="app.diagrams.net" agent="Mozilla/5.0 (Windows NT 10.0; Win64; x64) AppleWebKit/537.36 (KHTML, like Gecko) Chrome/135.0.0.0 Safari/537.36" version="26.2.14">
  <diagram name="Page-1" id="jC8XNAPGzXdXBZ8_TqmO">
    <mxGraphModel dx="2015" dy="518" grid="1" gridSize="10" guides="1" tooltips="1" connect="1" arrows="1" fold="1" page="1" pageScale="1" pageWidth="850" pageHeight="1100" math="0" shadow="0">
      <root>
        <mxCell id="0" />
        <mxCell id="1" parent="0" />
        <mxCell id="3dc-uZJj6DFqM0oMTB43-29" style="edgeStyle=orthogonalEdgeStyle;rounded=0;orthogonalLoop=1;jettySize=auto;html=1;exitX=1;exitY=0.5;exitDx=0;exitDy=0;exitPerimeter=0;entryX=0;entryY=0.5;entryDx=0;entryDy=0;" edge="1" parent="1" source="3dc-uZJj6DFqM0oMTB43-1" target="3dc-uZJj6DFqM0oMTB43-24">
          <mxGeometry relative="1" as="geometry" />
        </mxCell>
        <mxCell id="3dc-uZJj6DFqM0oMTB43-31" style="edgeStyle=orthogonalEdgeStyle;rounded=0;orthogonalLoop=1;jettySize=auto;html=1;exitX=0;exitY=0.5;exitDx=0;exitDy=0;exitPerimeter=0;entryX=1;entryY=0.5;entryDx=0;entryDy=0;" edge="1" parent="1" source="3dc-uZJj6DFqM0oMTB43-1" target="3dc-uZJj6DFqM0oMTB43-25">
          <mxGeometry relative="1" as="geometry" />
        </mxCell>
        <mxCell id="3dc-uZJj6DFqM0oMTB43-32" value="Else" style="edgeLabel;html=1;align=center;verticalAlign=middle;resizable=0;points=[];" vertex="1" connectable="0" parent="3dc-uZJj6DFqM0oMTB43-31">
          <mxGeometry x="0.0135" y="2" relative="1" as="geometry">
            <mxPoint as="offset" />
          </mxGeometry>
        </mxCell>
        <mxCell id="3dc-uZJj6DFqM0oMTB43-1" value="" style="strokeWidth=2;html=1;shape=mxgraph.flowchart.decision;whiteSpace=wrap;" vertex="1" parent="1">
          <mxGeometry x="230" y="450" width="100" height="100" as="geometry" />
        </mxCell>
        <mxCell id="3dc-uZJj6DFqM0oMTB43-2" value="" style="rounded=1;whiteSpace=wrap;html=1;" vertex="1" parent="1">
          <mxGeometry x="200" y="280" width="160" height="40" as="geometry" />
        </mxCell>
        <mxCell id="3dc-uZJj6DFqM0oMTB43-14" value="Displays all the products" style="rounded=1;whiteSpace=wrap;html=1;" vertex="1" parent="1">
          <mxGeometry x="200" y="360" width="160" height="40" as="geometry" />
        </mxCell>
        <mxCell id="3dc-uZJj6DFqM0oMTB43-27" style="edgeStyle=orthogonalEdgeStyle;rounded=0;orthogonalLoop=1;jettySize=auto;html=1;entryX=0.5;entryY=0;entryDx=0;entryDy=0;" edge="1" parent="1" source="3dc-uZJj6DFqM0oMTB43-15" target="3dc-uZJj6DFqM0oMTB43-14">
          <mxGeometry relative="1" as="geometry" />
        </mxCell>
        <mxCell id="3dc-uZJj6DFqM0oMTB43-15" value="PC Build Page" style="text;html=1;align=center;verticalAlign=middle;whiteSpace=wrap;rounded=0;" vertex="1" parent="1">
          <mxGeometry x="250" y="285" width="60" height="30" as="geometry" />
        </mxCell>
        <mxCell id="3dc-uZJj6DFqM0oMTB43-18" value="Feedback message when place order button clicked" style="rounded=1;whiteSpace=wrap;html=1;" vertex="1" parent="1">
          <mxGeometry x="400" y="1040" width="160" height="40" as="geometry" />
        </mxCell>
        <mxCell id="3dc-uZJj6DFqM0oMTB43-45" value="" style="edgeStyle=orthogonalEdgeStyle;rounded=0;orthogonalLoop=1;jettySize=auto;html=1;" edge="1" parent="1" source="3dc-uZJj6DFqM0oMTB43-20" target="3dc-uZJj6DFqM0oMTB43-38">
          <mxGeometry relative="1" as="geometry" />
        </mxCell>
        <mxCell id="3dc-uZJj6DFqM0oMTB43-20" value="Allows to edit order at will" style="rounded=1;whiteSpace=wrap;html=1;" vertex="1" parent="1">
          <mxGeometry x="400" y="800" width="160" height="40" as="geometry" />
        </mxCell>
        <mxCell id="3dc-uZJj6DFqM0oMTB43-34" style="edgeStyle=orthogonalEdgeStyle;rounded=0;orthogonalLoop=1;jettySize=auto;html=1;exitX=0.5;exitY=1;exitDx=0;exitDy=0;entryX=0.5;entryY=0;entryDx=0;entryDy=0;" edge="1" parent="1" source="3dc-uZJj6DFqM0oMTB43-21" target="3dc-uZJj6DFqM0oMTB43-20">
          <mxGeometry relative="1" as="geometry" />
        </mxCell>
        <mxCell id="3dc-uZJj6DFqM0oMTB43-21" value="Checkout page displays products that were added to cart" style="rounded=1;whiteSpace=wrap;html=1;" vertex="1" parent="1">
          <mxGeometry x="400" y="720" width="160" height="40" as="geometry" />
        </mxCell>
        <mxCell id="3dc-uZJj6DFqM0oMTB43-49" value="" style="edgeStyle=orthogonalEdgeStyle;rounded=0;orthogonalLoop=1;jettySize=auto;html=1;" edge="1" parent="1" source="3dc-uZJj6DFqM0oMTB43-23" target="3dc-uZJj6DFqM0oMTB43-21">
          <mxGeometry relative="1" as="geometry" />
        </mxCell>
        <mxCell id="3dc-uZJj6DFqM0oMTB43-23" value="Click Checkout Page" style="rounded=1;whiteSpace=wrap;html=1;" vertex="1" parent="1">
          <mxGeometry x="400" y="640" width="160" height="40" as="geometry" />
        </mxCell>
        <mxCell id="3dc-uZJj6DFqM0oMTB43-51" value="" style="edgeStyle=orthogonalEdgeStyle;rounded=0;orthogonalLoop=1;jettySize=auto;html=1;" edge="1" parent="1" source="3dc-uZJj6DFqM0oMTB43-24" target="3dc-uZJj6DFqM0oMTB43-39">
          <mxGeometry relative="1" as="geometry" />
        </mxCell>
        <mxCell id="3dc-uZJj6DFqM0oMTB43-24" value="Add to cart&amp;nbsp;&lt;div&gt;&lt;span style=&quot;background-color: transparent; color: light-dark(rgb(0, 0, 0), rgb(255, 255, 255));&quot;&gt;(&lt;/span&gt;&lt;span style=&quot;background-color: transparent; color: light-dark(rgb(0, 0, 0), rgb(255, 255, 255));&quot;&gt;Stores in local storage)&lt;/span&gt;&lt;/div&gt;" style="rounded=1;whiteSpace=wrap;html=1;" vertex="1" parent="1">
          <mxGeometry x="400" y="480" width="160" height="40" as="geometry" />
        </mxCell>
        <mxCell id="3dc-uZJj6DFqM0oMTB43-43" style="edgeStyle=orthogonalEdgeStyle;rounded=0;orthogonalLoop=1;jettySize=auto;html=1;exitX=0.5;exitY=1;exitDx=0;exitDy=0;entryX=0.5;entryY=0;entryDx=0;entryDy=0;" edge="1" parent="1" source="3dc-uZJj6DFqM0oMTB43-25" target="3dc-uZJj6DFqM0oMTB43-40">
          <mxGeometry relative="1" as="geometry" />
        </mxCell>
        <mxCell id="3dc-uZJj6DFqM0oMTB43-25" value="Add to Favourites" style="rounded=1;whiteSpace=wrap;html=1;" vertex="1" parent="1">
          <mxGeometry x="-40" y="480" width="160" height="40" as="geometry" />
        </mxCell>
        <mxCell id="3dc-uZJj6DFqM0oMTB43-28" style="edgeStyle=orthogonalEdgeStyle;rounded=0;orthogonalLoop=1;jettySize=auto;html=1;exitX=0.5;exitY=1;exitDx=0;exitDy=0;entryX=0.5;entryY=0;entryDx=0;entryDy=0;entryPerimeter=0;" edge="1" parent="1" source="3dc-uZJj6DFqM0oMTB43-14" target="3dc-uZJj6DFqM0oMTB43-1">
          <mxGeometry relative="1" as="geometry" />
        </mxCell>
        <mxCell id="3dc-uZJj6DFqM0oMTB43-46" value="" style="edgeStyle=orthogonalEdgeStyle;rounded=0;orthogonalLoop=1;jettySize=auto;html=1;" edge="1" parent="1" source="3dc-uZJj6DFqM0oMTB43-37" target="3dc-uZJj6DFqM0oMTB43-18">
          <mxGeometry relative="1" as="geometry" />
        </mxCell>
        <mxCell id="3dc-uZJj6DFqM0oMTB43-37" value="Fill the details correctly" style="rounded=1;whiteSpace=wrap;html=1;" vertex="1" parent="1">
          <mxGeometry x="400" y="960" width="160" height="40" as="geometry" />
        </mxCell>
        <mxCell id="3dc-uZJj6DFqM0oMTB43-47" value="" style="edgeStyle=orthogonalEdgeStyle;rounded=0;orthogonalLoop=1;jettySize=auto;html=1;" edge="1" parent="1" source="3dc-uZJj6DFqM0oMTB43-38" target="3dc-uZJj6DFqM0oMTB43-37">
          <mxGeometry relative="1" as="geometry" />
        </mxCell>
        <mxCell id="3dc-uZJj6DFqM0oMTB43-38" value="Displays all relevant details" style="rounded=1;whiteSpace=wrap;html=1;" vertex="1" parent="1">
          <mxGeometry x="400" y="880" width="160" height="40" as="geometry" />
        </mxCell>
        <mxCell id="3dc-uZJj6DFqM0oMTB43-50" value="" style="edgeStyle=orthogonalEdgeStyle;rounded=0;orthogonalLoop=1;jettySize=auto;html=1;" edge="1" parent="1" source="3dc-uZJj6DFqM0oMTB43-39" target="3dc-uZJj6DFqM0oMTB43-23">
          <mxGeometry relative="1" as="geometry" />
        </mxCell>
        <mxCell id="3dc-uZJj6DFqM0oMTB43-39" value="Adjust the quantity in the cart tab section" style="rounded=1;whiteSpace=wrap;html=1;" vertex="1" parent="1">
          <mxGeometry x="400" y="560" width="160" height="40" as="geometry" />
        </mxCell>
        <mxCell id="3dc-uZJj6DFqM0oMTB43-44" style="edgeStyle=orthogonalEdgeStyle;rounded=0;orthogonalLoop=1;jettySize=auto;html=1;entryX=0;entryY=0.5;entryDx=0;entryDy=0;" edge="1" parent="1" source="3dc-uZJj6DFqM0oMTB43-40" target="3dc-uZJj6DFqM0oMTB43-20">
          <mxGeometry relative="1" as="geometry" />
        </mxCell>
        <mxCell id="3dc-uZJj6DFqM0oMTB43-40" value="Adds Favourites to checkout page (local storage)" style="rounded=1;whiteSpace=wrap;html=1;" vertex="1" parent="1">
          <mxGeometry x="-40" y="800" width="160" height="40" as="geometry" />
        </mxCell>
      </root>
    </mxGraphModel>
  </diagram>
</mxfile>
